<svg width="30" height="26" viewBox="0 0 30 26" fill="none" xmlns="http://www.w3.org/2000/svg">
<path d="M5.02806 12.6509C5.02806 12.0682 5.13142 11.5093 5.3206 10.9913H3.46454C1.55419 10.9913 0 12.5455 0 14.4559V18.28C0 19.4262 0.932486 20.3587 2.07872 20.3587H5.14726C5.07034 20.1418 5.02806 19.9087 5.02806 19.6658V12.6509Z" fill="white"/>
<path d="M14.1213 9.18637H9.87811C7.96776 9.18637 6.41357 10.7406 6.41357 12.6509V19.6658C6.41357 20.0484 6.72379 20.3587 7.10648 20.3587H16.893C17.2757 20.3587 17.5859 20.0485 17.5859 19.6658V12.6509C17.5859 10.7406 16.0317 9.18637 14.1213 9.18637Z" fill="white"/>
<path d="M12 0C9.70259 0 7.8335 1.8691 7.8335 4.16659C7.8335 5.72495 8.69361 7.08597 9.96383 7.80053C10.5663 8.13944 11.2609 8.33313 12 8.33313C12.7392 8.33313 13.4338 8.13944 14.0362 7.80053C15.3065 7.08597 16.1666 5.7249 16.1666 4.16659C16.1666 1.86914 14.2975 0 12 0Z" fill="white"/>
<path d="M4.6834 3.88358C2.9652 3.88358 1.56738 5.28139 1.56738 6.9996C1.56738 8.7178 2.9652 10.1156 4.6834 10.1156C5.11925 10.1156 5.53428 10.0253 5.9113 9.86306C6.56314 9.58242 7.10061 9.08563 7.43319 8.46337C7.66663 8.02663 7.79943 7.5284 7.79943 6.9996C7.79943 5.28144 6.40161 3.88358 4.6834 3.88358Z" fill="white"/>
<circle cx="21.5" cy="16.6794" r="7.5" fill="white" stroke="black" stroke-width="2"/>
<rect x="20" y="12.1794" width="3" height="9" rx="1.5" fill="black"/>
<rect x="17" y="18.1794" width="3" height="9" rx="1.5" transform="rotate(-90 17 18.1794)" fill="black"/>
</svg>
