<svg width="10" height="12" viewBox="0 0 10 12" fill="none" xmlns="http://www.w3.org/2000/svg">
<path d="M5.00024 0C2.60387 0 0.654297 1.94958 0.654297 4.34592C0.654297 7.31986 4.54349 11.6858 4.70908 11.8702C4.86461 12.0434 5.13616 12.0431 5.29141 11.8702C5.45699 11.6858 9.34619 7.31986 9.34619 4.34592C9.34614 1.94958 7.39659 0 5.00024 0ZM5.00024 6.53248C3.79457 6.53248 2.81371 5.55159 2.81371 4.34592C2.81371 3.14025 3.79459 2.15939 5.00024 2.15939C6.20589 2.15939 7.18675 3.14027 7.18675 4.34595C7.18675 5.55162 6.20589 6.53248 5.00024 6.53248Z" fill="white"/>
</svg>
