<svg width="29" height="29" viewBox="0 0 29 29" fill="none" xmlns="http://www.w3.org/2000/svg">
<g clip-path="url(#clip0_109_6)">
<path d="M19.9363 0C18.3902 0.106937 16.5832 1.09656 15.5301 2.38524C14.5695 3.55429 13.7792 5.29066 14.0874 6.97808C15.7766 7.03065 17.522 6.01746 18.5334 4.70703C19.4795 3.48723 20.1954 1.76174 19.9363 0Z" fill="black"/>
<path d="M26.0461 9.72944C24.5617 7.86802 22.4755 6.78777 20.5053 6.78777C17.9044 6.78777 16.8042 8.03295 14.9972 8.03295C13.1339 8.03295 11.7184 6.7914 9.46909 6.7914C7.25966 6.7914 4.90705 8.1417 3.41537 10.4508C1.31832 13.7024 1.6772 19.8159 5.07561 25.0232C6.29179 26.8865 7.91578 28.9817 10.04 28.9998C11.9304 29.018 12.4633 27.7873 15.0244 27.7746C17.5854 27.7601 18.0712 29.0161 19.958 28.9962C22.084 28.9799 23.7968 26.6581 25.013 24.7949C25.8848 23.4591 26.2092 22.7866 26.8853 21.2786C21.968 19.4063 21.1796 12.4137 26.0461 9.72944Z" fill="black"/>
</g>
<defs>
<clipPath id="clip0_109_6">
<rect width="29" height="29" fill="white"/>
</clipPath>
</defs>
</svg>
