<svg width="20" height="24" viewBox="0 0 20 24" fill="none" xmlns="http://www.w3.org/2000/svg">
<path d="M16.0002 9.55927C15.3975 8.3769 13.967 7.92167 12.8073 8.49497C12.2606 7.42236 11.0117 6.92597 9.88899 7.31572V2.42787C9.88899 1.12494 8.84194 0.0363231 7.55461 0.000985178C6.20574 -0.0372629 5.08802 1.04304 5.08802 2.39482V14.6918L4.15032 13.7098C3.25024 12.7675 1.74318 12.7012 0.790514 13.5624C-0.214745 14.471 -0.264842 16.0182 0.660803 16.9906L6.05004 22.7389C6.8017 23.5402 7.86288 24 8.96168 24H15.4616C17.6623 24 19.4527 22.2096 19.4527 20.0089V11.7074C19.4527 9.93364 17.5816 8.77726 16.0002 9.55927Z" fill="#00BDBA"/>
</svg>
