<svg width="21" height="21" viewBox="0 0 21 21" fill="none" xmlns="http://www.w3.org/2000/svg">
<path d="M5.90625 10.2129H4.59375C4.25398 10.2129 3.97852 10.4884 3.97852 10.8281C3.97852 11.1679 4.25398 11.4434 4.59375 11.4434H5.90625C6.24602 11.4434 6.52148 11.1679 6.52148 10.8281C6.52148 10.4884 6.24602 10.2129 5.90625 10.2129Z" fill="#CDD1E5"/>
<path d="M5.90625 12.8379H4.59375C4.25398 12.8379 3.97852 13.1134 3.97852 13.4531C3.97852 13.7929 4.25398 14.0684 4.59375 14.0684H5.90625C6.24602 14.0684 6.52148 13.7929 6.52148 13.4531C6.52148 13.1134 6.24602 12.8379 5.90625 12.8379Z" fill="#CDD1E5"/>
<path d="M5.90625 15.4629H4.59375C4.25398 15.4629 3.97852 15.7384 3.97852 16.0781C3.97852 16.4179 4.25398 16.6934 4.59375 16.6934H5.90625C6.24602 16.6934 6.52148 16.4179 6.52148 16.0781C6.52148 15.7384 6.24602 15.4629 5.90625 15.4629Z" fill="#CDD1E5"/>
<path d="M11.1562 10.2129H9.84375C9.50398 10.2129 9.22852 10.4884 9.22852 10.8281C9.22852 11.1679 9.50398 11.4434 9.84375 11.4434H11.1562C11.496 11.4434 11.7715 11.1679 11.7715 10.8281C11.7715 10.4884 11.496 10.2129 11.1562 10.2129Z" fill="#CDD1E5"/>
<path d="M11.1562 12.8379H9.84375C9.50398 12.8379 9.22852 13.1134 9.22852 13.4531C9.22852 13.7929 9.50398 14.0684 9.84375 14.0684H11.1562C11.496 14.0684 11.7715 13.7929 11.7715 13.4531C11.7715 13.1134 11.496 12.8379 11.1562 12.8379Z" fill="#CDD1E5"/>
<path d="M11.1562 15.4629H9.84375C9.50398 15.4629 9.22852 15.7384 9.22852 16.0781C9.22852 16.4179 9.50398 16.6934 9.84375 16.6934H11.1562C11.496 16.6934 11.7715 16.4179 11.7715 16.0781C11.7715 15.7384 11.496 15.4629 11.1562 15.4629Z" fill="#CDD1E5"/>
<path d="M16.4062 10.2129H15.0938C14.754 10.2129 14.4785 10.4884 14.4785 10.8281C14.4785 11.1679 14.754 11.4434 15.0938 11.4434H16.4062C16.746 11.4434 17.0215 11.1679 17.0215 10.8281C17.0215 10.4884 16.746 10.2129 16.4062 10.2129Z" fill="#CDD1E5"/>
<path d="M16.4062 12.8379H15.0938C14.754 12.8379 14.4785 13.1134 14.4785 13.4531C14.4785 13.7929 14.754 14.0684 15.0938 14.0684H16.4062C16.746 14.0684 17.0215 13.7929 17.0215 13.4531C17.0215 13.1134 16.746 12.8379 16.4062 12.8379Z" fill="#CDD1E5"/>
<path d="M16.4062 15.4629H15.0938C14.754 15.4629 14.4785 15.7384 14.4785 16.0781C14.4785 16.4179 14.754 16.6934 15.0938 16.6934H16.4062C16.746 16.6934 17.0215 16.4179 17.0215 16.0781C17.0215 15.7384 16.746 15.4629 16.4062 15.4629Z" fill="#CDD1E5"/>
<path d="M19.1543 2.66602H17.6777V1.64062C17.6777 1.30085 17.4023 1.02539 17.0625 1.02539C16.7227 1.02539 16.4473 1.30085 16.4473 1.64062V2.66602H11.1152V1.64062C11.1152 1.30085 10.8398 1.02539 10.5 1.02539C10.1602 1.02539 9.88477 1.30085 9.88477 1.64062V2.66602H4.55273V1.64062C4.55273 1.30085 4.27727 1.02539 3.9375 1.02539C3.59773 1.02539 3.32227 1.30085 3.32227 1.64062V2.66602H1.8457C0.827982 2.66602 0 3.494 0 4.51172V18.1289C0 19.1466 0.827982 19.9746 1.8457 19.9746H19.1543C20.172 19.9746 21 19.1466 21 18.1289C21 17.7318 21 4.85728 21 4.51172C21 3.494 20.172 2.66602 19.1543 2.66602ZM1.23047 4.51172C1.23047 4.17248 1.50646 3.89648 1.8457 3.89648H3.32227V4.92188C3.32227 5.26165 3.59773 5.53711 3.9375 5.53711C4.27727 5.53711 4.55273 5.26165 4.55273 4.92188V3.89648H9.88477V4.92188C9.88477 5.26165 10.1602 5.53711 10.5 5.53711C10.8398 5.53711 11.1152 5.26165 11.1152 4.92188V3.89648H16.4473V4.92188C16.4473 5.26165 16.7227 5.53711 17.0625 5.53711C17.4023 5.53711 17.6777 5.26165 17.6777 4.92188V3.89648H19.1543C19.4935 3.89648 19.7695 4.17248 19.7695 4.51172V6.93164H1.23047V4.51172ZM19.1543 18.7441H1.8457C1.50646 18.7441 1.23047 18.4681 1.23047 18.1289V8.16211H19.7695V18.1289C19.7695 18.4681 19.4935 18.7441 19.1543 18.7441Z" fill="#CDD1E5"/>
</svg>
