<svg width="10" height="10" viewBox="0 0 10 10" fill="none" xmlns="http://www.w3.org/2000/svg">
<path d="M6.78119 5.88303L5.38691 4.83733V2.70721C5.38691 2.49303 5.21379 2.31991 4.99961 2.31991C4.78543 2.31991 4.6123 2.49303 4.6123 2.70721V5.031C4.6123 5.15299 4.66963 5.26803 4.76723 5.34085L6.31641 6.50274C6.38611 6.55503 6.46746 6.5802 6.5484 6.5802C6.66652 6.5802 6.78271 6.52714 6.85863 6.42489C6.98725 6.25407 6.95238 6.01124 6.78119 5.88303Z" fill="#6F727E"/>
<path d="M5 0C2.24283 0 0 2.24283 0 5C0 7.75717 2.24283 10 5 10C7.75717 10 10 7.75717 10 5C10 2.24283 7.75717 0 5 0ZM5 9.22541C2.67041 9.22541 0.77459 7.32959 0.77459 5C0.77459 2.67041 2.67041 0.77459 5 0.77459C7.32998 0.77459 9.22541 2.67041 9.22541 5C9.22541 7.32959 7.32959 9.22541 5 9.22541Z" fill="#6F727E"/>
</svg>
