<svg width="21" height="19" viewBox="0 0 21 19" fill="none" xmlns="http://www.w3.org/2000/svg">
<path d="M5.90625 9.21289H4.59375C4.25398 9.21289 3.97852 9.48835 3.97852 9.82812C3.97852 10.1679 4.25398 10.4434 4.59375 10.4434H5.90625C6.24602 10.4434 6.52148 10.1679 6.52148 9.82812C6.52148 9.48835 6.24602 9.21289 5.90625 9.21289Z" fill="#CDD1E5"/>
<path d="M5.90625 11.8379H4.59375C4.25398 11.8379 3.97852 12.1134 3.97852 12.4531C3.97852 12.7929 4.25398 13.0684 4.59375 13.0684H5.90625C6.24602 13.0684 6.52148 12.7929 6.52148 12.4531C6.52148 12.1134 6.24602 11.8379 5.90625 11.8379Z" fill="#CDD1E5"/>
<path d="M5.90625 14.4629H4.59375C4.25398 14.4629 3.97852 14.7384 3.97852 15.0781C3.97852 15.4179 4.25398 15.6934 4.59375 15.6934H5.90625C6.24602 15.6934 6.52148 15.4179 6.52148 15.0781C6.52148 14.7384 6.24602 14.4629 5.90625 14.4629Z" fill="#CDD1E5"/>
<path d="M11.1562 9.21289H9.84375C9.50398 9.21289 9.22852 9.48835 9.22852 9.82812C9.22852 10.1679 9.50398 10.4434 9.84375 10.4434H11.1562C11.496 10.4434 11.7715 10.1679 11.7715 9.82812C11.7715 9.48835 11.496 9.21289 11.1562 9.21289Z" fill="#CDD1E5"/>
<path d="M11.1562 11.8379H9.84375C9.50398 11.8379 9.22852 12.1134 9.22852 12.4531C9.22852 12.7929 9.50398 13.0684 9.84375 13.0684H11.1562C11.496 13.0684 11.7715 12.7929 11.7715 12.4531C11.7715 12.1134 11.496 11.8379 11.1562 11.8379Z" fill="#CDD1E5"/>
<path d="M11.1562 14.4629H9.84375C9.50398 14.4629 9.22852 14.7384 9.22852 15.0781C9.22852 15.4179 9.50398 15.6934 9.84375 15.6934H11.1562C11.496 15.6934 11.7715 15.4179 11.7715 15.0781C11.7715 14.7384 11.496 14.4629 11.1562 14.4629Z" fill="#CDD1E5"/>
<path d="M16.4062 9.21289H15.0938C14.754 9.21289 14.4785 9.48835 14.4785 9.82812C14.4785 10.1679 14.754 10.4434 15.0938 10.4434H16.4062C16.746 10.4434 17.0215 10.1679 17.0215 9.82812C17.0215 9.48835 16.746 9.21289 16.4062 9.21289Z" fill="#CDD1E5"/>
<path d="M16.4062 11.8379H15.0938C14.754 11.8379 14.4785 12.1134 14.4785 12.4531C14.4785 12.7929 14.754 13.0684 15.0938 13.0684H16.4062C16.746 13.0684 17.0215 12.7929 17.0215 12.4531C17.0215 12.1134 16.746 11.8379 16.4062 11.8379Z" fill="#CDD1E5"/>
<path d="M16.4062 14.4629H15.0938C14.754 14.4629 14.4785 14.7384 14.4785 15.0781C14.4785 15.4179 14.754 15.6934 15.0938 15.6934H16.4062C16.746 15.6934 17.0215 15.4179 17.0215 15.0781C17.0215 14.7384 16.746 14.4629 16.4062 14.4629Z" fill="#CDD1E5"/>
<path d="M19.1543 1.66602H17.6777V0.640625C17.6777 0.300852 17.4023 0.0253906 17.0625 0.0253906C16.7227 0.0253906 16.4473 0.300852 16.4473 0.640625V1.66602H11.1152V0.640625C11.1152 0.300852 10.8398 0.0253906 10.5 0.0253906C10.1602 0.0253906 9.88477 0.300852 9.88477 0.640625V1.66602H4.55273V0.640625C4.55273 0.300852 4.27727 0.0253906 3.9375 0.0253906C3.59773 0.0253906 3.32227 0.300852 3.32227 0.640625V1.66602H1.8457C0.827982 1.66602 0 2.494 0 3.51172V17.1289C0 18.1466 0.827982 18.9746 1.8457 18.9746H19.1543C20.172 18.9746 21 18.1466 21 17.1289C21 16.7318 21 3.85728 21 3.51172C21 2.494 20.172 1.66602 19.1543 1.66602ZM1.23047 3.51172C1.23047 3.17248 1.50646 2.89648 1.8457 2.89648H3.32227V3.92188C3.32227 4.26165 3.59773 4.53711 3.9375 4.53711C4.27727 4.53711 4.55273 4.26165 4.55273 3.92188V2.89648H9.88477V3.92188C9.88477 4.26165 10.1602 4.53711 10.5 4.53711C10.8398 4.53711 11.1152 4.26165 11.1152 3.92188V2.89648H16.4473V3.92188C16.4473 4.26165 16.7227 4.53711 17.0625 4.53711C17.4023 4.53711 17.6777 4.26165 17.6777 3.92188V2.89648H19.1543C19.4935 2.89648 19.7695 3.17248 19.7695 3.51172V5.93164H1.23047V3.51172ZM19.1543 17.7441H1.8457C1.50646 17.7441 1.23047 17.4681 1.23047 17.1289V7.16211H19.7695V17.1289C19.7695 17.4681 19.4935 17.7441 19.1543 17.7441Z" fill="#CDD1E5"/>
</svg>
