<svg width="13" height="13" viewBox="0 0 13 13" fill="none" xmlns="http://www.w3.org/2000/svg">
<g clip-path="url(#clip0_917_1337)">
<path d="M3.02926 11.9101C3.05967 12.522 3.56106 13 4.17489 13H8.8255C9.43933 13 9.94077 12.5221 9.97113 11.9101L10.641 4.20589H2.35938L3.02926 11.9101ZM7.64727 6.11765H8.41197V10.3235H7.64727V6.11765ZM6.11785 6.11765H6.88256V10.3235H6.11785V6.11765ZM4.58844 6.11765H5.35315V10.3235H4.58844V6.11765Z" fill="#191A1F"/>
<path d="M8.41165 1.91177V1.14706C8.41165 0.514596 7.8971 0 7.26459 0H5.73518C5.10272 0 4.58812 0.514596 4.58812 1.14706V1.91177H1.5293V3.44118H11.4705V1.91177H8.41165ZM5.35283 1.91177V1.14706C5.35283 0.93623 5.52438 0.764706 5.73518 0.764706H7.26459C7.47545 0.764706 7.64694 0.93623 7.64694 1.14706V1.91177H5.35283Z" fill="#191A1F"/>
</g>
<defs>
<clipPath id="clip0_917_1337">
<rect width="13" height="13" fill="white"/>
</clipPath>
</defs>
</svg>
