<svg width="26" height="24" viewBox="0 0 26 24" fill="none" xmlns="http://www.w3.org/2000/svg">
<path d="M25.1123 22.8621L19.5002 16.5259C20.2231 15.3018 20.4398 13.8439 20.1041 12.4624C19.7684 11.081 18.9069 9.88515 17.7028 9.12931C17.7028 9.03879 17.7028 8.94827 17.7028 8.85775C17.7028 7.1053 17.183 5.39224 16.2091 3.93531C15.2352 2.47838 13.8511 1.34306 12.2318 0.673022C10.6125 0.00298034 8.83083 -0.171676 7.11224 0.171152C5.39365 0.51398 3.81538 1.35888 2.57711 2.59896C1.33885 3.83903 0.496251 5.41854 0.155934 7.13763C-0.184383 8.85672 -0.00712341 10.6381 0.665283 12.2564C1.33769 13.8748 2.47502 15.2573 3.93337 16.229C5.39172 17.2008 7.10555 17.7181 8.858 17.7155C9.50219 17.7149 10.1442 17.6412 10.7718 17.4957C11.284 18.0467 11.9044 18.4861 12.5941 18.7865C13.2838 19.0868 14.0281 19.2417 14.7804 19.2414C15.3835 19.2435 15.9826 19.1429 16.552 18.944C16.9446 18.8174 17.3185 18.6391 17.664 18.4138L23.9744 24L25.1123 22.8621ZM10.6037 5.63793C10.6813 5.23706 11.1339 5.05603 11.5218 4.93965L13.1511 4.44827C13.6037 4.31896 14.0692 4.15086 14.5347 4.04741C15.0002 3.94396 15.0778 4.13793 15.3106 4.38362C15.8734 5.0145 16.273 5.77372 16.4744 6.59482C16.6437 7.26273 16.7306 7.94888 16.733 8.63793C16.1325 8.41365 15.4988 8.29128 14.858 8.27586C14.8694 8.17705 14.8694 8.07725 14.858 7.97844C14.7586 7.71914 14.6092 7.4819 14.4183 7.28017C14.1464 6.87719 13.7586 6.56611 13.3063 6.38793C12.9564 6.31687 12.5958 6.31687 12.2459 6.38793C11.9026 6.47835 11.5418 6.47835 11.1985 6.38793C11.0281 6.3381 10.8799 6.23131 10.7787 6.0854C10.6775 5.9395 10.6294 5.76329 10.6425 5.5862L10.6037 5.63793ZM7.50024 2.14655C7.43261 2.6251 7.28393 3.08863 7.06058 3.51724C6.88471 3.89888 6.60432 4.2229 6.25188 4.45175C5.89945 4.68061 5.48939 4.80494 5.06921 4.81034C4.68127 4.81034 4.31921 4.62931 3.93127 4.56465C3.74032 4.51945 3.54045 4.52949 3.35499 4.5936C3.16953 4.65771 3.00613 4.77324 2.88386 4.92672C2.82635 5.04796 2.79652 5.18046 2.79652 5.31465C2.79652 5.44884 2.82635 5.58134 2.88386 5.70258C2.98297 5.97358 3.11778 6.23015 3.28472 6.46551L5.03041 8.66379C5.32776 8.97218 5.52204 9.36527 5.58645 9.78879C5.53631 10.2901 5.29561 10.753 4.91403 11.0819C4.11925 11.9306 3.20435 12.6581 2.19852 13.2414C1.73276 12.4177 1.55957 11.4606 1.70714 10.5259C1.79765 9.59482 2.01748 8.66379 2.03041 7.73275C1.89447 6.72871 1.89447 5.71093 2.03041 4.70689C2.45106 3.59781 3.25968 2.67893 4.30627 2.12068C5.02456 1.61601 5.83187 1.25185 6.68558 1.04741C6.97007 1.04741 7.358 0.905167 7.50024 1.21551C7.5908 1.51925 7.5908 1.84281 7.50024 2.14655ZM9.22007 10.1897C8.91098 9.91907 8.70391 9.55077 8.63332 9.14609C8.56274 8.74141 8.6329 8.32476 8.83214 7.96551C9.05359 7.61746 9.36549 7.33614 9.73447 7.15165C10.1035 6.96716 10.5156 6.88643 10.927 6.9181C11.751 6.99104 12.513 7.38599 13.0477 8.01724L13.4227 8.45689C13.2804 8.45689 13.1382 8.53448 12.9959 8.57327C11.8357 8.97476 10.8432 9.75322 10.177 10.7845C9.90541 10.5388 9.51748 10.4224 9.22007 10.1897ZM16.177 17.8448C15.0932 18.2169 13.9061 18.1433 12.8766 17.6401C11.8472 17.1369 11.0598 16.2454 10.6877 15.1616C10.3156 14.0779 10.3893 12.8907 10.8925 11.8613C11.3957 10.8319 12.2872 10.0445 13.3709 9.67241C13.825 9.51873 14.3011 9.44011 14.7804 9.43965C15.6803 9.44363 16.5567 9.72693 17.2887 10.2504C18.0207 10.7739 18.572 11.5118 18.8666 12.3621C19.0516 12.8981 19.1286 13.4655 19.0931 14.0315C19.0576 14.5974 18.9103 15.1508 18.6597 15.6595C18.1526 16.6868 17.2603 17.4722 16.177 17.8448Z" fill="#5B6073"/>
</svg>
