<svg width="24" height="22" viewBox="0 0 24 22" fill="none" xmlns="http://www.w3.org/2000/svg">
<path d="M12.0221 0.29389L14.4532 7.77416C14.4812 7.86235 14.5363 7.93949 14.6106 7.99463C14.685 8.04977 14.7748 8.08012 14.8673 8.08138H22.7082C22.7991 8.08039 22.8879 8.1084 22.9618 8.16133C23.0357 8.21426 23.0908 8.28936 23.1191 8.37573C23.1474 8.4621 23.1474 8.55524 23.1191 8.64163C23.0909 8.72801 23.0359 8.80315 22.962 8.85612L16.6038 13.4779C16.5308 13.5318 16.4763 13.6069 16.4476 13.693C16.4189 13.779 16.4175 13.8718 16.4435 13.9587L18.8746 21.439C18.9026 21.5246 18.9028 21.6168 18.8753 21.7025C18.8478 21.7882 18.794 21.8631 18.7214 21.9164C18.6488 21.9697 18.5613 21.9987 18.4713 21.9994C18.3813 22 18.2933 21.9722 18.22 21.9199L11.795 17.3649C11.7207 17.3126 11.6321 17.2845 11.5412 17.2845C11.4504 17.2845 11.3617 17.3126 11.2874 17.3649L4.92921 21.9199C4.85632 21.978 4.76645 22.0106 4.67327 22.0129C4.5801 22.0151 4.48874 21.9869 4.41311 21.9324C4.33748 21.878 4.28171 21.8003 4.25431 21.7112C4.22691 21.6221 4.22938 21.5266 4.26133 21.439L6.67906 13.9587C6.71073 13.8736 6.71349 13.7803 6.68694 13.6934C6.66039 13.6065 6.60599 13.5308 6.53213 13.4779L0.173901 8.85612C0.100052 8.80315 0.0450097 8.72801 0.0167672 8.64163C-0.0114752 8.55524 -0.0114478 8.4621 0.0168456 8.37573C0.0451389 8.28936 0.100225 8.21426 0.174106 8.16133C0.247987 8.1084 0.336816 8.08039 0.427696 8.08138H8.29534C8.38737 8.07819 8.47625 8.0471 8.5502 7.99223C8.62416 7.93736 8.67968 7.86131 8.70942 7.77416L11.1405 0.29389C11.1405 0.176982 11.187 0.0648624 11.2696 -0.0178039C11.3523 -0.10047 11.4644 -0.146912 11.5813 -0.146912C11.6982 -0.146912 11.8103 -0.10047 11.893 -0.0178039C11.9757 0.0648624 12.0221 0.176982 12.0221 0.29389Z" fill="#5B6073"/>
</svg>
