<svg width="16" height="16" viewBox="0 0 16 16" fill="none" xmlns="http://www.w3.org/2000/svg">
<path d="M15.14 1.20473e-06H0.875585C0.62384 -0.000474686 0.393193 0.140071 0.278186 0.363897C0.161594 0.590737 0.182057 0.863897 0.33101 1.07107L5.5569 8.4329C5.55864 8.43544 5.56055 8.43782 5.56229 8.44036C5.75217 8.6967 5.85496 9.0073 5.85544 9.3263V15.3284C5.85433 15.506 5.92413 15.6769 6.04928 15.803C6.1746 15.9289 6.34497 16 6.52263 16C6.6129 15.9998 6.70236 15.9819 6.7858 15.9472L9.72235 14.8276C9.98536 14.7471 10.16 14.4989 10.16 14.2V9.3263C10.1605 9.0073 10.2633 8.6967 10.453 8.44036C10.4547 8.43782 10.4566 8.43544 10.4584 8.4329L15.6844 1.07091C15.8334 0.863897 15.8539 0.590896 15.7373 0.364056C15.6224 0.140071 15.3916 -0.000474686 15.14 1.20473e-06Z" fill="black"/>
</svg>
