<svg width="13" height="13" viewBox="0 0 13 13" fill="none" xmlns="http://www.w3.org/2000/svg">
<g clip-path="url(#clip0_619_190)">
<path d="M6.67499 0.0396323C6.54884 -0.0202863 6.40124 -0.0119383 6.28341 0.0626441C6.16519 0.136842 6.09377 0.266565 6.09377 0.406201C6.09377 2.59458 5.01188 3.42017 3.86654 4.29416C2.76441 5.13524 1.625 6.00486 1.625 8.02342C1.625 10.7676 3.81178 13 6.50002 13C9.18825 13 11.375 10.7676 11.375 8.02342C11.3751 4.45167 8.11076 0.724769 6.67499 0.0396323ZM4.87502 10.461C4.87502 9.81073 5.20669 9.55087 5.66572 9.19103C6.09577 8.8542 6.60796 8.45312 6.81386 7.67275C7.39586 8.27855 8.12507 9.41558 8.12507 10.461C8.12507 11.4131 7.39627 12.1875 6.50007 12.1875C5.60382 12.1875 4.87502 11.4131 4.87502 10.461ZM8.71593 11.5055C8.85532 11.186 8.93757 10.8341 8.93757 10.461C8.93757 8.74351 7.45418 6.92132 6.67898 6.54127C6.55241 6.47978 6.40286 6.48651 6.28503 6.56151C6.16602 6.6357 6.0938 6.76622 6.0938 6.90627C6.0938 7.8235 5.68356 8.14487 5.16465 8.55151C4.64812 8.95616 4.06252 9.41478 4.06252 10.461C4.06252 10.8342 4.14479 11.186 4.28418 11.5055C3.17481 10.7613 2.4375 9.48104 2.4375 8.02344C2.4375 6.40677 3.32815 5.72718 4.35964 4.94005C5.43598 4.11844 6.64204 3.1984 6.86856 1.12588C8.28173 2.23237 10.5625 5.22451 10.5625 8.02344C10.5625 9.48104 9.82522 10.7613 8.71593 11.5055Z" fill="white"/>
</g>
<defs>
<clipPath id="clip0_619_190">
<rect width="13" height="13" fill="white"/>
</clipPath>
</defs>
</svg>
