<svg width="10" height="17" viewBox="0 0 10 17" fill="none" xmlns="http://www.w3.org/2000/svg">
<path d="M9.71618 7.83666L2.15097 0.271584C1.97599 0.0964711 1.74242 3.04654e-07 1.49336 2.61108e-07C1.24431 2.17562e-07 1.01073 0.0964709 0.835758 0.271583L0.278632 0.82857C-0.0838937 1.19151 -0.0838938 1.78139 0.278632 2.14378L6.63133 8.49648L0.271581 14.8562C0.0966064 15.0313 -2.66898e-06 15.2648 -2.7125e-06 15.5137C-2.75607e-06 15.7629 0.0966062 15.9963 0.27158 16.1716L0.828706 16.7284C1.00382 16.9035 1.23726 17 1.48631 17C1.73537 17 1.96894 16.9035 2.14391 16.7284L9.71618 9.15643C9.89157 8.98077 9.9879 8.74622 9.98735 8.49689C9.9879 8.24659 9.89157 8.01219 9.71618 7.83666Z" fill="#656A7E"/>
</svg>
