<svg xmlns="http://www.w3.org/2000/svg" width="22.804" height="22.805" viewBox="0 0 22.804 22.805">
  <g id="google_2_" data-name="google (2)" transform="translate(0)">
    <path id="Path_13" data-name="Path 13" d="M277.176,211.479h-9.3a.744.744,0,0,0-.744.744v2.971a.744.744,0,0,0,.744.744h5.238a6.993,6.993,0,0,1-3.01,3.527l2.234,3.866a11.18,11.18,0,0,0,5.7-9.778,7.538,7.538,0,0,0-.128-1.46A.747.747,0,0,0,277.176,211.479Z" transform="translate(-255.233 -202.06)" fill="#fff"/>
    <path id="Path_14" data-name="Path 14" d="M44.281,337.32a6.939,6.939,0,0,1-6-3.473l-3.866,2.229a11.393,11.393,0,0,0,15.571,4.179v-.005l-2.234-3.867A6.889,6.889,0,0,1,44.281,337.32Z" transform="translate(-32.878 -318.977)" fill="#fff"/>
    <path id="Path_15" data-name="Path 15" d="M261.7,394.651v-.005l-2.234-3.867a6.889,6.889,0,0,1-3.468.937v4.462A11.383,11.383,0,0,0,261.7,394.651Z" transform="translate(-244.598 -373.374)" fill="#fff"/>
    <path id="Path_16" data-name="Path 16" d="M4.462,133.815a6.889,6.889,0,0,1,.937-3.467l-3.866-2.229a11.35,11.35,0,0,0,0,11.392L5.4,137.282A6.889,6.889,0,0,1,4.462,133.815Z" transform="translate(0 -122.413)" fill="#fff"/>
    <path id="Path_17" data-name="Path 17" d="M44.281,4.462a6.909,6.909,0,0,1,4.406,1.582.741.741,0,0,0,1-.045l2.105-2.105a.749.749,0,0,0-.043-1.1A11.377,11.377,0,0,0,34.411,5.706l3.866,2.229A6.939,6.939,0,0,1,44.281,4.462Z" transform="translate(-32.878)" fill="#fff"/>
    <path id="Path_18" data-name="Path 18" d="M260.406,6.044a.741.741,0,0,0,1-.045l2.105-2.105a.749.749,0,0,0-.043-1.1A11.368,11.368,0,0,0,256,0V4.462A6.909,6.909,0,0,1,260.406,6.044Z" transform="translate(-244.598 0)" fill="#fff"/>
  </g>
</svg>
