<svg width="12" height="12" viewBox="0 0 12 12" fill="none" xmlns="http://www.w3.org/2000/svg">
<g clip-path="url(#clip0_834_605)">
<path d="M10.2679 6.40594H9.33984C9.43444 6.66493 9.48612 6.94442 9.48612 7.23573V10.7432C9.48612 10.8646 9.46498 10.9812 9.42652 11.0896H10.9608C11.5339 11.0896 12.0001 10.6233 12.0001 10.0503V8.13819C12.0001 7.18304 11.223 6.40594 10.2679 6.40594Z" fill="white"/>
<path d="M2.51403 7.23576C2.51403 6.94443 2.56571 6.66496 2.6603 6.40598H1.73227C0.777095 6.40598 0 7.18307 0 8.13824V10.0503C0 10.6234 0.466243 11.0897 1.03936 11.0897H2.57363C2.53517 10.9812 2.51403 10.8646 2.51403 10.7432V7.23576Z" fill="white"/>
<path d="M7.06091 5.50349H4.9393C3.98413 5.50349 3.20703 6.28059 3.20703 7.23576V10.7432C3.20703 10.9345 3.36214 11.0896 3.55348 11.0896H8.44673C8.63807 11.0896 8.79318 10.9345 8.79318 10.7432V7.23576C8.79318 6.28059 8.01609 5.50349 7.06091 5.50349Z" fill="white"/>
<path d="M5.99977 0.910309C4.85105 0.910309 3.9165 1.84486 3.9165 2.9936C3.9165 3.77278 4.34656 4.45329 4.98167 4.81057C5.28291 4.98003 5.63021 5.07687 5.99977 5.07687C6.36934 5.07687 6.71663 4.98003 7.01788 4.81057C7.65301 4.45329 8.08304 3.77276 8.08304 2.9936C8.08304 1.84488 7.14849 0.910309 5.99977 0.910309Z" fill="white"/>
<path d="M2.3417 2.8521C1.4826 2.8521 0.783691 3.551 0.783691 4.41011C0.783691 5.26921 1.4826 5.96812 2.3417 5.96812C2.55962 5.96812 2.76714 5.92298 2.95565 5.84184C3.28157 5.70152 3.55031 5.45313 3.7166 5.14199C3.83331 4.92362 3.89971 4.67451 3.89971 4.41011C3.89971 3.55103 3.20081 2.8521 2.3417 2.8521Z" fill="white"/>
<path d="M9.65811 2.8521C8.79901 2.8521 8.1001 3.551 8.1001 4.41011C8.1001 4.67453 8.1665 4.92365 8.28322 5.14199C8.4495 5.45315 8.71824 5.70154 9.04416 5.84184C9.23267 5.92298 9.44019 5.96812 9.65811 5.96812C10.5172 5.96812 11.2161 5.26921 11.2161 4.41011C11.2161 3.551 10.5172 2.8521 9.65811 2.8521Z" fill="white"/>
</g>
<defs>
<clipPath id="clip0_834_605">
<rect width="12" height="12" fill="white"/>
</clipPath>
</defs>
</svg>
