<svg width="11" height="13" viewBox="0 0 11 13" fill="none" xmlns="http://www.w3.org/2000/svg">
<path d="M5.67499 0.0396247C5.54884 -0.0202939 5.40124 -0.011946 5.28341 0.0626365C5.16519 0.136835 5.09377 0.266557 5.09377 0.406194C5.09377 2.59457 4.01188 3.42017 2.86654 4.29415C1.76441 5.13523 0.625 6.00485 0.625 8.02341C0.625 10.7676 2.81178 13 5.50002 13C8.18825 13 10.375 10.7676 10.375 8.02341C10.3751 4.45166 7.11076 0.724762 5.67499 0.0396247ZM3.87502 10.461C3.87502 9.81072 4.20669 9.55087 4.66572 9.19102C5.09577 8.85419 5.60796 8.45311 5.81386 7.67274C6.39586 8.27854 7.12507 9.41557 7.12507 10.461C7.12507 11.4131 6.39627 12.1875 5.50007 12.1875C4.60382 12.1875 3.87502 11.4131 3.87502 10.461ZM7.71593 11.5054C7.85532 11.186 7.93757 10.8341 7.93757 10.461C7.93757 8.7435 6.45418 6.92131 5.67898 6.54126C5.55241 6.47978 5.40286 6.4865 5.28503 6.5615C5.16602 6.6357 5.0938 6.76622 5.0938 6.90626C5.0938 7.8235 4.68356 8.14487 4.16465 8.5515C3.64812 8.95615 3.06252 9.41477 3.06252 10.461C3.06252 10.8342 3.14479 11.186 3.28418 11.5055C2.17481 10.7613 1.4375 9.48103 1.4375 8.02344C1.4375 6.40676 2.32815 5.72717 3.35964 4.94004C4.43598 4.11843 5.64204 3.1984 5.86856 1.12588C7.28173 2.23237 9.56254 5.22451 9.56254 8.02344C9.56254 9.48103 8.82522 10.7613 7.71593 11.5054Z" fill="white"/>
</svg>
