<svg width="26" height="22" viewBox="0 0 26 22" fill="none" xmlns="http://www.w3.org/2000/svg">
<path d="M22.9732 2.27004C19.9378 -0.752367 5.3057 -0.752367 2.21844 2.27004C-0.868828 5.29245 -0.803969 12.6474 2.21844 15.6568C3.98259 17.421 9.65122 18.1604 14.6842 17.875C14.8035 17.8677 14.9227 17.8899 15.0313 17.9397C15.1399 17.9895 15.2346 18.0653 15.3069 18.1604L18.1607 21.7146C18.2537 21.824 18.3766 21.904 18.5144 21.9447C18.6522 21.9854 18.7988 21.9851 18.9364 21.9438C19.074 21.9026 19.1966 21.8221 19.2892 21.7123C19.3818 21.6025 19.4404 21.4681 19.4578 21.3255L19.7562 17.6545C19.7712 17.5075 19.8299 17.3684 19.9247 17.2551C20.0195 17.1419 20.146 17.0596 20.288 17.0189C21.2717 16.8009 22.191 16.3568 22.9732 15.7217C26.0085 12.6863 26.0085 5.34433 22.9732 2.3349" fill="#5B6073"/>
</svg>
