<svg xmlns="http://www.w3.org/2000/svg" xmlns:xlink="http://www.w3.org/1999/xlink" width="24" height="24" viewBox="0 0 24 24">
  <defs>
    <clipPath id="clip-path">
      <rect id="Rectangle_247" data-name="Rectangle 247" width="24" height="24" fill="#fff"/>
    </clipPath>
  </defs>
  <g id="insta" clip-path="url(#clip-path)">
    <path id="Path_670" data-name="Path 670" d="M12,5.838A6.158,6.158,0,1,0,18.162,12,6.157,6.157,0,0,0,12,5.838Zm0,10.155a4,4,0,1,1,4-4A4,4,0,0,1,12,15.993Z" fill="#fff"/>
    <path id="Path_671" data-name="Path 671" d="M16.947.077c-2.208-.1-7.677-.1-9.887,0A7.172,7.172,0,0,0,2.024,2.018C-.284,4.326.011,7.436.011,12c0,4.668-.26,7.706,2.013,9.979C4.341,24.292,7.5,23.989,12,23.989c4.624,0,6.22,0,7.855-.63,2.223-.863,3.9-2.85,4.065-6.419.1-2.209.1-7.677,0-9.887C23.725,2.84,21.464.285,16.947.077Zm3.5,20.372c-1.513,1.513-3.612,1.378-8.468,1.378-5,0-7.005.074-8.468-1.393-1.685-1.677-1.38-4.37-1.38-8.453,0-5.525-.567-9.5,4.978-9.788,1.274-.045,1.649-.06,4.856-.06l.045.03c5.329,0,9.51-.558,9.761,4.986.057,1.265.07,1.645.07,4.847C21.835,16.938,21.929,18.955,20.442,20.449Z" fill="#fff"/>
    <path id="Path_672" data-name="Path 672" d="M18.406,7.034a1.439,1.439,0,1,0-1.439-1.439A1.439,1.439,0,0,0,18.406,7.034Z" fill="#fff"/>
  </g>
</svg>
