<svg width="23" height="19" viewBox="0 0 23 19" fill="none" xmlns="http://www.w3.org/2000/svg">
<path d="M2.37934 0.775879C1.06514 0.775879 0 1.84102 0 3.15518C0 4.46933 1.06514 5.53451 2.37934 5.53451C3.69349 5.53451 4.75863 4.46937 4.75863 3.15518C4.75863 1.84098 3.69349 0.775879 2.37934 0.775879ZM2.37934 7.12068C1.06514 7.12068 0 8.18586 0 9.50002C0 10.8142 1.06514 11.8794 2.37934 11.8794C3.69349 11.8794 4.75863 10.8142 4.75863 9.50002C4.75863 8.18586 3.69349 7.12068 2.37934 7.12068ZM2.37934 13.4656C1.06514 13.4656 0 14.5307 0 15.8448C0 17.159 1.06514 18.2242 2.37934 18.2242C3.69349 18.2242 4.75863 17.159 4.75863 15.8448C4.75863 14.5307 3.69349 13.4656 2.37934 13.4656ZM8.72414 4.74139H21.4138C22.2902 4.74139 23 4.03154 23 3.15518C23 2.27881 22.2902 1.56897 21.4138 1.56897H8.72414C7.84777 1.56897 7.13793 2.27881 7.13793 3.15518C7.13793 4.03154 7.84777 4.74139 8.72414 4.74139ZM21.4138 7.91381H8.72414C7.84777 7.91381 7.13793 8.62365 7.13793 9.50002C7.13793 10.3764 7.84777 11.0862 8.72414 11.0862H21.4138C22.2902 11.0862 23 10.3764 23 9.50002C23 8.62365 22.2902 7.91381 21.4138 7.91381ZM21.4138 14.2586H8.72414C7.84777 14.2586 7.13793 14.9685 7.13793 15.8448C7.13793 16.7212 7.84777 17.431 8.72414 17.431H21.4138C22.2902 17.431 23 16.7212 23 15.8448C23 14.9685 22.2902 14.2586 21.4138 14.2586Z" fill="white"/>
</svg>
