<svg width="100" height="100" viewBox="0 0 100 100" fill="none" xmlns="http://www.w3.org/2000/svg">
<path d="M91.4705 70.1117C90.052 69.3326 88.2709 69.8508 87.4922 71.2687C86.7131 72.6869 87.2311 74.4682 88.6492 75.2471C92.1391 77.1643 94.1406 79.2896 94.1406 81.0783C94.1406 83.266 91.041 86.6566 82.3412 89.6123C73.7465 92.5326 62.2607 94.1406 50 94.1406C37.7393 94.1406 26.2535 92.5326 17.6588 89.6123C8.95899 86.6568 5.85938 83.266 5.85938 81.0783C5.85938 79.2896 7.86094 77.1643 11.3508 75.2469C12.7689 74.468 13.2869 72.6867 12.5078 71.2685C11.7287 69.8506 9.94805 69.3324 8.52949 70.1115C4.63848 72.2492 0 75.8871 0 81.0783C0 85.0576 2.73672 90.7311 15.7738 95.1604C24.9598 98.2813 37.1148 100 50 100C62.8852 100 75.0402 98.2813 84.2262 95.1604C97.2633 90.7311 100 85.0576 100 81.0783C100 75.8871 95.3615 72.2492 91.4705 70.1117Z" fill="white"/>
<path d="M27.8812 85.3769C33.8285 87.057 41.6838 87.9824 50 87.9824C58.3162 87.9824 66.1715 87.0572 72.1188 85.3769C79.3947 83.3217 83.084 80.3463 83.084 76.5342C83.084 72.7219 79.3947 69.7469 72.1188 67.6916C70.5035 67.2353 68.7469 66.8352 66.8793 66.4937C65.865 68.2461 64.8023 70.0498 63.6912 71.9055C65.7584 72.2156 67.6992 72.5959 69.4617 73.0449C74.8164 74.4088 76.7727 75.9441 77.1748 76.5344C76.7725 77.1248 74.8166 78.6601 69.4619 80.0238C64.3937 81.3146 57.873 82.051 51.0053 82.1168C50.6727 82.1414 50.3375 82.1553 50 82.1553C49.6623 82.1553 49.3273 82.1414 48.9945 82.1168C42.1268 82.051 35.6061 81.3148 30.5379 80.0238C25.1832 78.6601 23.2271 77.1246 22.825 76.5344C23.2271 75.9441 25.1834 74.4088 30.5381 73.0449C32.3006 72.5961 34.2414 72.2156 36.3088 71.9055C35.1977 70.05 34.135 68.2459 33.1207 66.4937C31.2531 66.8353 29.4963 67.2353 27.8812 67.6916C20.6053 69.7469 16.916 72.7221 16.916 76.5342C16.916 80.3463 20.6053 83.3215 27.8812 85.3769Z" fill="white"/>
<path d="M50 76.2957C52.608 76.2957 54.9769 74.9668 56.3375 72.7408C65.8707 57.1437 77.2344 36.5879 77.2344 27.2342C77.2344 12.2172 65.0172 0 50 0C34.9828 0 22.7656 12.2172 22.7656 27.2342C22.7656 36.5879 34.1295 57.1437 43.6625 72.7408C45.023 74.9668 47.3922 76.2957 50 76.2957ZM39.0533 25.3643C39.0533 19.3285 43.9641 14.418 50 14.418C56.0359 14.418 60.9467 19.3285 60.9467 25.3643C60.9467 31.4002 56.0359 36.3107 50 36.3107C43.9641 36.3107 39.0533 31.4004 39.0533 25.3643Z" fill="white"/>
</svg>
