<svg width="16" height="20" viewBox="0 0 16 20" fill="none" xmlns="http://www.w3.org/2000/svg">
<path d="M16 0.695477V18.7779C16 18.9623 15.9267 19.1392 15.7963 19.2697C15.6659 19.4001 15.489 19.4734 15.3045 19.4734H1.39499C1.21053 19.4734 1.03364 19.4001 0.90321 19.2697C0.772783 19.1392 0.699509 18.9623 0.699509 18.7779V17.3869H2.09046V18.0824H14.609V1.39095H2.09046V3.47738H0.699509V0.695477C0.699509 0.511025 0.772783 0.334128 0.90321 0.2037C1.03364 0.0732732 1.21053 0 1.39499 0H15.3045C15.489 0 15.6659 0.0732732 15.7963 0.2037C15.9267 0.334128 16 0.511025 16 0.695477ZM4.67068 12.7203L2.37561 10.4322H9.74071V9.0412H2.37561L4.67068 6.75308L3.6831 5.7655L0.205721 9.24289C0.140535 9.30754 0.0887956 9.38446 0.0534871 9.46921C0.0181787 9.55396 0 9.64486 0 9.73668C0 9.82849 0.0181787 9.91939 0.0534871 10.0041C0.0887956 10.0889 0.140535 10.1658 0.205721 10.2305L3.6831 13.7078L4.67068 12.7203Z" fill="white"/>
</svg>
