<svg width="800" height="378" viewBox="0 0 800 378" fill="none" xmlns="http://www.w3.org/2000/svg">
<path fill-rule="evenodd" clip-rule="evenodd" d="M0.445312 79.7859V159.125H27.8243H55.2032V139.011V118.897H86.3663H117.529V94.3128V69.7289H86.3663H55.2032V59.8953V50.0618H94.1571H133.111V25.2544V0.447021H66.7781H0.445312V79.7859ZM154.925 79.7859V159.125H218.141H281.358V134.094V109.063H245.52H209.683V54.7551V0.447021H182.304H154.925V79.7859ZM334.558 0.955238C320.78 2.70293 310.917 9.31197 305.843 20.1968C305.102 21.7881 303.95 25.0854 303.284 27.5246L302.072 31.9591L301.931 77.7745C301.807 118.304 301.873 124.093 302.51 127.954C305.439 145.721 315.615 155.761 333.445 158.476C339.659 159.422 411.816 159.422 418.03 158.476C427.421 157.046 433.753 154.108 439.216 148.645C443.167 144.695 445.434 141.06 447.213 135.824C449.803 128.202 449.763 128.947 449.962 83.8087C450.078 57.3632 449.976 40.2068 449.683 36.6524C447.88 14.8188 437.376 3.43285 416.706 0.907858C412.061 0.34064 339.073 0.382656 334.558 0.955238ZM503.327 0.945404C485.386 3.31842 475.193 12.5682 471.372 29.9477L470.34 34.641V79.5624C470.34 120.302 470.411 124.865 471.111 128.574C474.395 145.985 484.589 155.799 502.17 158.476C505.589 158.996 513.221 159.117 542.015 159.108C562.138 159.102 579.063 158.91 580.926 158.668C600.375 156.133 611.228 144.892 613.438 124.992C613.698 122.642 613.912 114.879 613.912 107.74V94.7598H586.594H559.275L558.992 96.8337C558.836 97.974 558.709 101.293 558.709 104.209V109.51H542.015H525.32V79.7806V50.051L542.126 50.1682L558.932 50.2853L559.054 57.5487L559.177 64.8121H586.544H613.912V51.8323C613.912 44.6931 613.698 36.9295 613.438 34.5797C611.669 18.6538 604.322 8.20123 591.615 3.53163C583.802 0.660678 585.293 0.750968 544.018 0.640117C523.319 0.584691 505.017 0.721914 503.327 0.945404ZM638.843 80.4564V159.125H719.199H799.555V134.317V109.51H763.05C742.972 109.51 726.544 109.36 726.544 109.176C726.544 108.992 741.97 93.3527 760.824 74.4217L795.104 40.0016L777.629 22.4599L760.153 4.91771L727.212 37.9938C709.094 56.1854 694.12 71.0698 693.936 71.0698C693.751 71.0698 693.601 55.4814 693.601 36.4289V1.78796H666.222H638.843V80.4564ZM394.88 79.7859V109.51H375.737H356.594V80.0841C356.594 63.8994 356.728 50.5235 356.891 50.3599C357.054 50.1959 365.669 50.0618 376.034 50.0618H394.88V79.7859ZM0.445312 287.172V377.698L66.8894 377.695C138.149 377.693 137.186 377.72 145.576 375.44C150.504 374.101 157.333 370.595 160.903 367.572C168.222 361.373 172.745 352.727 174.81 340.99C175.568 336.682 175.626 332.886 175.626 287.632C175.626 236.24 175.612 235.835 173.556 227.736C172.29 222.755 168.422 214.951 165.451 211.388C159.843 204.662 152.002 200.31 141.124 197.884C136.939 196.951 136.174 196.939 68.6701 196.794L0.445312 196.647V287.172ZM249.527 197.175C237.788 198.719 229.636 202.439 222.816 209.364C218.305 213.945 215.767 218.019 213.715 223.971C210.679 232.781 210.856 229.25 210.679 284.503C210.508 337.596 210.557 339.192 212.607 346.882C217.304 364.504 229.918 374.816 249.738 377.237C252.106 377.526 270.67 377.697 299.599 377.695C338.351 377.693 346.396 377.586 350.139 377.02C368.603 374.231 380.17 364.946 385.212 348.868C387.84 340.488 387.814 341.145 387.651 285.173C387.505 235.094 387.481 233.908 386.57 229.971C384.465 220.885 381.284 214.768 375.74 209.147C369.938 203.265 364.043 200.217 354.062 197.939C349.702 196.944 349.608 196.942 301.169 196.854C273.747 196.804 251.288 196.944 249.527 197.175ZM457.284 197.157C438.764 199.373 426.157 208.762 420.882 224.267C417.702 233.615 417.808 231.447 417.808 287.185C417.808 342.892 417.704 340.76 420.866 350.056C425.387 363.345 434.73 371.944 448.681 375.656C456.293 377.681 458.651 377.76 506.4 377.59C550.16 377.433 551.471 377.404 555.37 376.493C564.553 374.349 570.899 371.164 576.355 365.96C583.213 359.42 587.028 351.403 588.753 339.91C589.263 336.517 589.422 331.179 589.424 317.467L589.427 299.476H557.374H525.32V309.757V320.038H503.506H481.692V287.185V254.332H503.506H525.32V264.612V274.893H557.409H589.498L589.309 254.667C589.136 236.309 589.034 234.069 588.207 230.418C586.05 220.9 582.783 214.508 577.223 208.925C571.589 203.269 565.536 200.175 555.732 197.94C551.384 196.949 551.149 196.944 505.954 196.856C480.98 196.807 459.078 196.943 457.284 197.157ZM621.926 287.185V377.698H649.75H677.574V336.465V295.232L718.643 336.465C741.231 359.143 759.913 377.698 760.159 377.698C760.404 377.698 769.382 368.884 780.108 358.112L799.612 338.526L757.736 296.818C734.704 273.879 715.86 254.935 715.86 254.721C715.86 254.503 733.756 254.332 756.594 254.332H797.329V225.501V196.671H709.627H621.926V287.185ZM107.221 254.622L111.297 254.912V287.475V320.038H87.9244H64.5522V287.185V254.332H83.8492C94.4629 254.332 104.98 254.462 107.221 254.622ZM323.651 287.185V320.038H299.165H274.68V287.185V254.332H299.165H323.651V287.185Z" fill="black"/>
</svg>
