<svg width="26" height="26" viewBox="0 0 26 26" fill="none" xmlns="http://www.w3.org/2000/svg">
<path d="M20.3125 0C17.1762 0 14.625 2.55125 14.625 5.6875C14.625 8.606 19.188 13.7751 19.708 14.3552C19.8624 14.5259 20.0817 14.625 20.3125 14.625C20.5433 14.625 20.7626 14.5259 20.917 14.3552C21.437 13.7751 26 8.606 26 5.6875C26 2.55125 23.4487 0 20.3125 0ZM20.3125 8.125C18.967 8.125 17.875 7.033 17.875 5.6875C17.875 4.342 18.967 3.25 20.3125 3.25C21.658 3.25 22.75 4.342 22.75 5.6875C22.75 7.033 21.658 8.125 20.3125 8.125Z" fill="white"/>
<path d="M0.51025 9.54525C0.203125 9.66875 0 9.96775 0 10.3009V25.1875C0 25.4573 0.134875 25.7091 0.3575 25.8602C0.494 25.9513 0.651625 26 0.8125 26C0.914875 26 1.01725 25.9805 1.11475 25.9415L8.125 23.1367V6.5L0.51025 9.54525Z" fill="white"/>
<path d="M22.126 15.4407C21.6645 15.9542 21.0031 16.25 20.3125 16.25C19.6219 16.25 18.9605 15.9542 18.499 15.4407C18.3332 15.2571 18.1204 15.015 17.875 14.7274V26L25.4897 22.9547C25.7985 22.8329 26 22.5322 26 22.2007V10.2554C24.6691 12.5092 22.8898 14.5892 22.126 15.4407Z" fill="white"/>
<path d="M13.5119 8.00475L9.75 6.5V23.1367L16.25 25.7367V12.688C15.2116 11.2889 14.1277 9.60375 13.5119 8.00475Z" fill="white"/>
</svg>
