<svg width="32" height="28" viewBox="0 0 32 28" fill="none" xmlns="http://www.w3.org/2000/svg">
<path d="M0.518346 5.30362C0 7.23249 0 9.89346 0 14C0 19.8329 0 22.7494 1.48542 24.7939C1.96515 25.4542 2.54582 26.0348 3.20611 26.5146C5.25062 28 8.16708 28 14 28H17.1111C22.944 28 25.8605 28 27.905 26.5146C28.5653 26.0348 29.146 25.4542 29.6257 24.7939C31.1111 22.7494 31.1111 19.8329 31.1111 14C31.1111 9.87978 31.1111 7.21477 30.5876 5.28436L27.3166 8.55534C24.7775 11.0944 22.7877 13.0843 21.0264 14.4281C19.2236 15.8036 17.5238 16.6117 15.5553 16.6117C13.5869 16.6117 11.887 15.8036 10.0843 14.4281C8.32298 13.0843 6.33315 11.0944 3.79406 8.55531L0.752663 5.51391L0.518346 5.30362Z" fill="white"/>
<path d="M1.55556 3.11111L1.72487 3.25122L2.35802 3.81944L5.38086 6.84228C7.99678 9.45819 9.87747 11.3354 11.4996 12.573C13.0948 13.7902 14.3022 14.2783 15.5553 14.2783C16.8085 14.2783 18.0158 13.7902 19.6111 12.573C21.2332 11.3354 23.1139 9.45819 25.7298 6.84228L29.3199 3.2522L29.5153 3.0579C29.0356 2.3976 28.5653 1.96515 27.905 1.48542C25.8605 0 22.944 0 17.1111 0H14C8.16708 0 5.25062 0 3.20611 1.48542C2.54582 1.96515 2.03529 2.45082 1.55556 3.11111Z" fill="white"/>
</svg>
