<svg width="11" height="11" viewBox="0 0 11 11" fill="none" xmlns="http://www.w3.org/2000/svg">
<path d="M10.8692 0.100892C10.7856 0.0270242 10.6749 -0.00844797 10.5639 0.00306151L3.49251 0.788768C3.29346 0.810797 3.14285 0.979019 3.14287 1.17926V8.18038C2.78681 7.96732 2.37924 7.85577 1.9643 7.85784C0.881189 7.85787 0 8.56264 0 9.42928C0 10.2959 0.881189 11.0007 1.96428 11.0007C3.04736 11.0007 3.92855 10.2963 3.92855 9.42928V3.49715L10.2143 2.79708V7.39351C9.8581 7.18086 9.45053 7.06972 9.0357 7.07214C7.95259 7.07214 7.07142 7.77693 7.07142 8.64357C7.07142 9.51021 7.95261 10.215 9.0357 10.215C10.1188 10.215 11 9.5106 11 8.64357V0.393578C11 0.281844 10.9524 0.175404 10.8692 0.100892Z" fill="white"/>
</svg>
