<svg width="25" height="22" viewBox="0 0 25 22" fill="none" xmlns="http://www.w3.org/2000/svg">
<g clip-path="url(#clip0_617_0)">
<path d="M16.5094 13.8169C16.6157 13.8037 16.7141 13.7534 16.7877 13.6748C16.8612 13.5962 16.9054 13.4942 16.9127 13.3863C17.0067 12.3259 17.0452 11.2613 17.0279 10.1968C16.8253 8.78057 16.525 7.38033 16.1292 6.00636C15.8067 5.0635 15.2306 4.6561 14.7352 4.6561H9.75815C9.21666 4.6561 8.67517 5.0635 8.39867 6.00636C7.99107 7.37944 7.67923 8.7797 7.46547 10.1968C7.43837 11.2611 7.47299 12.3261 7.56916 13.3863C7.57897 13.4952 7.62552 13.5974 7.70103 13.6758C7.77653 13.7542 7.8764 13.8041 7.98392 13.8169L8.76734 13.9101C8.8335 13.9185 8.90068 13.9124 8.96425 13.892C9.02783 13.8717 9.08628 13.8377 9.13557 13.7923C9.18486 13.7469 9.22381 13.6913 9.24975 13.6292C9.27569 13.5672 9.28798 13.5002 9.28579 13.4328C9.28579 12.5249 9.22818 10.7323 9.28579 10.1619C9.43974 9.14939 9.65131 8.14667 9.91944 7.15874C9.92838 7.12712 9.94727 7.09931 9.97326 7.0795C9.99924 7.0597 10.0309 7.04898 10.0635 7.04898C10.096 7.04898 10.1277 7.0597 10.1536 7.0795C10.1796 7.09931 10.1985 7.12712 10.2075 7.15874C10.2075 8.32276 10.2075 10.8487 10.2075 11C10.2075 11.1513 8.81343 19.2413 8.43323 21.4762C8.41934 21.5431 8.42058 21.6123 8.43685 21.6786C8.45312 21.745 8.484 21.8067 8.5272 21.8593C8.57039 21.9119 8.62478 21.954 8.68631 21.9824C8.74784 22.0108 8.81492 22.0248 8.88255 22.0233H9.74662C9.84932 22.024 9.94931 21.99 10.0307 21.9268C10.1121 21.8635 10.1703 21.7746 10.1959 21.6741L11.7974 15.3651C11.8206 15.2622 11.8777 15.1704 11.9593 15.1046C12.0409 15.0388 12.1422 15.0029 12.2467 15.0029C12.3511 15.0029 12.4524 15.0388 12.5341 15.1046C12.6157 15.1704 12.6728 15.2622 12.696 15.3651L14.2859 21.6508C14.3133 21.7503 14.3719 21.8381 14.4529 21.9011C14.534 21.964 14.633 21.9988 14.7352 22H15.5993C15.6672 22.0011 15.7346 21.9869 15.7965 21.9586C15.8584 21.9303 15.9133 21.8885 15.9573 21.8362C16.0014 21.7839 16.0334 21.7225 16.0512 21.6562C16.069 21.5899 16.072 21.5205 16.0601 21.4529C15.6799 19.2762 14.2974 11.3259 14.2744 11.0349C14.2513 10.7439 14.2744 8.36932 14.2744 7.19366C14.2833 7.16204 14.3022 7.13423 14.3282 7.11442C14.3542 7.09462 14.3858 7.0839 14.4184 7.0839C14.4509 7.0839 14.4826 7.09462 14.5086 7.11442C14.5346 7.13423 14.5535 7.16204 14.5624 7.19366C14.8272 8.18168 15.035 9.18444 15.1845 10.1968C15.2431 11.2863 15.2431 12.3782 15.1845 13.4677C15.1823 13.5351 15.1946 13.6021 15.2206 13.6642C15.2465 13.7262 15.2855 13.7819 15.3347 13.8272C15.384 13.8726 15.4425 13.9066 15.5061 13.927C15.5696 13.9473 15.6368 13.9534 15.703 13.945L16.5094 13.8169Z" fill="white"/>
<path d="M10.9105 3.37566C10.5188 2.38553 10.5188 1.28114 10.9105 0.291007C11.3289 0.101189 11.7824 0.00305176 12.2411 0.00305176C12.6999 0.00305176 13.1534 0.101189 13.5718 0.291007C13.9635 1.28114 13.9635 2.38553 13.5718 3.37566C13.155 3.57144 12.7008 3.67287 12.2411 3.67287C11.7815 3.67287 11.3273 3.57144 10.9105 3.37566Z" fill="white"/>
<path d="M7.94934 14.818C8.04327 14.8097 8.1311 14.7675 8.19671 14.6991C8.26232 14.6307 8.30129 14.5406 8.30649 14.4455C8.39359 13.5132 8.42437 12.5763 8.39865 11.6402C8.21654 10.3992 7.94312 9.17355 7.58066 7.97356C7.33872 7.13547 6.8318 6.80954 6.42857 6.80954H2.02756C1.58976 6.80954 1.08284 7.18203 0.875458 7.97356C0.499075 9.17359 0.206492 10.3988 -0.000135757 11.6402C-0.0180238 12.5768 0.0204504 13.5136 0.115074 14.4455C0.120265 14.5406 0.159242 14.6307 0.224849 14.6991C0.290456 14.7675 0.378289 14.8097 0.472224 14.818L1.16348 14.8995C1.22153 14.9084 1.28081 14.9039 1.33694 14.8865C1.39306 14.8691 1.4446 14.8392 1.48774 14.799C1.53088 14.7587 1.56452 14.7092 1.58616 14.6541C1.60781 14.599 1.61691 14.5396 1.6128 14.4804C1.6128 13.6889 1.6128 12.1524 1.6128 11.6169C1.6128 11.0815 1.95843 9.66139 2.16581 8.97462C2.16581 8.94066 2.17916 8.90809 2.20293 8.88408C2.22669 8.86007 2.25893 8.84658 2.29254 8.84658C2.32615 8.84658 2.35838 8.86007 2.38215 8.88408C2.40592 8.90809 2.41927 8.94066 2.41927 8.97462V12.3386C2.41927 12.5947 1.18652 19.5556 0.852416 21.4762C0.842242 21.5352 0.845084 21.5958 0.860739 21.6536C0.876395 21.7114 0.904478 21.765 0.942988 21.8106C0.981498 21.8562 1.02948 21.8926 1.08353 21.9173C1.13757 21.942 1.19634 21.9543 1.25565 21.9535H2.00451C2.09725 21.9559 2.188 21.926 2.26145 21.8688C2.33491 21.8115 2.38657 21.7304 2.40775 21.6392L3.80179 16.1101C3.8273 16.0236 3.87977 15.9477 3.95138 15.8938C4.023 15.8399 4.10994 15.8107 4.19926 15.8107C4.28858 15.8107 4.37552 15.8399 4.44713 15.8938C4.51875 15.9477 4.57122 16.0236 4.59673 16.1101L5.99077 21.6392C6.01152 21.7285 6.06148 21.8081 6.13257 21.8651C6.20365 21.9221 6.29171 21.9533 6.38248 21.9535H7.14287C7.20217 21.9543 7.26094 21.942 7.31499 21.9173C7.36903 21.8926 7.41702 21.8562 7.45553 21.8106C7.49404 21.765 7.52212 21.7114 7.53778 21.6536C7.55343 21.5958 7.55628 21.5352 7.5461 21.4762C7.21199 19.5556 6.00229 12.5947 5.97925 12.3386C5.95621 12.0826 5.97925 10.0106 5.97925 8.97462C5.97925 8.94066 5.9926 8.90809 6.01637 8.88408C6.04013 8.86007 6.07237 8.84658 6.10598 8.84658C6.13959 8.84658 6.17183 8.86007 6.19559 8.88408C6.21936 8.90809 6.23271 8.94066 6.23271 8.97462C6.46593 9.85208 6.65056 10.742 6.78572 11.6402C6.85484 12.1408 6.78572 13.7122 6.78572 14.5037C6.78341 14.5635 6.79415 14.623 6.81717 14.6781C6.84018 14.7331 6.87491 14.7824 6.9189 14.8224C6.96288 14.8624 7.01503 14.8921 7.07166 14.9095C7.12829 14.9268 7.188 14.9314 7.24656 14.9228L7.94934 14.818Z" fill="white"/>
<path d="M3.20248 5.35451C3.05927 4.43441 3.27846 3.49424 3.81309 2.73546C4.21233 2.64454 4.62669 2.64545 5.02553 2.73813C5.42437 2.83082 5.79748 3.0129 6.11729 3.27091C6.25621 4.19452 6.03752 5.13669 5.50668 5.9016C5.10647 5.98841 4.69218 5.98436 4.29371 5.88976C3.89524 5.79515 3.52253 5.61233 3.20248 5.35451Z" fill="white"/>
<path d="M16.4287 14.818C16.3343 14.8079 16.2463 14.7654 16.1792 14.6976C16.1121 14.6298 16.07 14.5408 16.06 14.4455C15.9786 13.5128 15.9478 12.5763 15.9679 11.6402C16.1594 10.4 16.4366 9.17474 16.7974 7.97356C17.0393 7.13547 17.5462 6.80954 17.9495 6.80954H22.3505C22.7767 6.80954 23.2952 7.18203 23.5026 7.97356C23.8767 9.17263 24.1617 10.3983 24.3551 11.6402C24.3752 12.5763 24.3444 13.5128 24.263 14.4455C24.2578 14.5406 24.2188 14.6307 24.1532 14.6991C24.0876 14.7675 23.9997 14.8097 23.9058 14.818L23.2145 14.8995C23.156 14.9081 23.0963 14.9035 23.0396 14.8862C22.983 14.8688 22.9309 14.8391 22.8869 14.7991C22.8429 14.7591 22.8082 14.7099 22.7852 14.6548C22.7621 14.5997 22.7514 14.5402 22.7537 14.4804C22.7537 13.6889 22.8113 12.1524 22.7537 11.6169C22.6215 10.7268 22.4407 9.84465 22.2122 8.97462C22.2122 8.94066 22.1989 8.90809 22.1751 8.88408C22.1513 8.86007 22.1191 8.84658 22.0855 8.84658C22.0519 8.84658 22.0196 8.86007 21.9959 8.88408C21.9721 8.90809 21.9588 8.94066 21.9588 8.97462C21.9588 9.99896 21.9588 12.2106 21.9588 12.3386C21.9588 12.4667 23.1915 19.5556 23.5256 21.4762C23.5338 21.5349 23.5295 21.5948 23.5131 21.6517C23.4967 21.7087 23.4684 21.7614 23.4303 21.8066C23.3922 21.8517 23.3451 21.8881 23.292 21.9134C23.2389 21.9387 23.1811 21.9524 23.1224 21.9535H22.3505C22.2597 21.9533 22.1716 21.9221 22.1006 21.8651C22.0295 21.8081 21.9795 21.7285 21.9588 21.6392L20.5647 16.1101C20.5392 16.0236 20.4867 15.9477 20.4151 15.8938C20.3435 15.8399 20.2566 15.8107 20.1672 15.8107C20.0779 15.8107 19.991 15.8399 19.9194 15.8938C19.8478 15.9477 19.7953 16.0236 19.7698 16.1101L18.3642 21.6392C18.3435 21.7285 18.2935 21.8081 18.2224 21.8651C18.1513 21.9221 18.0633 21.9533 17.9725 21.9535H17.2812C17.2219 21.9543 17.1632 21.942 17.1091 21.9173C17.0551 21.8926 17.0071 21.8562 16.9686 21.8106C16.9301 21.765 16.902 21.7114 16.8863 21.6536C16.8707 21.5958 16.8678 21.5352 16.878 21.4762C17.2121 19.5556 18.4218 12.5947 18.4333 12.3386C18.4449 12.0826 18.4333 10.0106 18.4333 8.97462C18.4333 8.94066 18.42 8.90809 18.3962 8.88408C18.3725 8.86007 18.3402 8.84658 18.3066 8.84658C18.273 8.84658 18.2408 8.86007 18.217 8.88408C18.1932 8.90809 18.1799 8.94066 18.1799 8.97462C17.9725 9.66139 17.696 11.1746 17.6269 11.6169C17.5577 12.0593 17.6269 13.6889 17.6269 14.4804C17.631 14.5396 17.6219 14.599 17.6002 14.6541C17.5786 14.7092 17.545 14.7587 17.5018 14.799C17.4587 14.8392 17.4071 14.8691 17.351 14.8865C17.2949 14.9039 17.2356 14.9084 17.1776 14.8995L16.4287 14.818Z" fill="white"/>
<path d="M21.1757 5.35448C21.3128 4.43463 21.0941 3.49676 20.5651 2.73543C20.1659 2.64366 19.7513 2.64415 19.3524 2.73686C18.9534 2.82958 18.5803 3.01212 18.2609 3.27088C18.1171 4.19468 18.3362 5.1387 18.8715 5.90157C19.2717 5.98756 19.6859 5.98311 20.0842 5.88853C20.4825 5.79395 20.8553 5.61159 21.1757 5.35448Z" fill="white"/>
</g>
<defs>
<clipPath id="clip0_617_0">
<rect width="24.3784" height="22" fill="white"/>
</clipPath>
</defs>
</svg>
