<svg width="76" height="100" viewBox="0 0 76 100" fill="none" xmlns="http://www.w3.org/2000/svg">
<path d="M72.375 68.75C68.9287 68.75 66.125 65.9463 66.125 62.5V40.625C66.125 33.0941 63.1869 26.0189 57.8521 20.7027C54.5633 17.4254 50.6086 15.0625 46.2943 13.7375C46.983 12.4336 47.375 10.9496 47.375 9.375C47.375 4.20566 43.1693 0 38 0C32.8307 0 28.625 4.20566 28.625 9.375C28.625 10.9586 29.0211 12.451 29.7174 13.7604C18.2438 17.3441 9.875 28.166 9.875 40.8965V62.5C9.875 65.9463 7.07129 68.75 3.625 68.75C1.89922 68.75 0.5 70.1492 0.5 71.875V84.375C0.5 86.1008 1.89922 87.5 3.625 87.5H27.1748C27.1018 88.0135 27.0625 88.535 27.0625 89.0625C27.0625 95.0934 31.9691 100 38 100C44.0309 100 48.9375 95.0934 48.9375 89.0625C48.9375 88.535 48.8984 88.0135 48.8252 87.5H72.375C74.1008 87.5 75.5 86.1008 75.5 84.375V71.875C75.5 70.1492 74.1008 68.75 72.375 68.75ZM38 6.25C39.723 6.25 41.125 7.65195 41.125 9.375C41.125 11.098 39.723 12.5 38 12.5C36.277 12.5 34.875 11.098 34.875 9.375C34.875 7.65195 36.277 6.25 38 6.25ZM22.375 40.625C20.6492 40.625 19.25 39.2258 19.25 37.5C19.25 28.8844 26.2594 21.875 34.875 21.875C36.6008 21.875 38 23.2742 38 25C38 26.7258 36.6008 28.125 34.875 28.125C29.7057 28.125 25.5 32.3307 25.5 37.5C25.5 39.2258 24.1008 40.625 22.375 40.625ZM42.6875 89.0625C42.6875 91.6473 40.5848 93.75 38 93.75C35.4152 93.75 33.3125 91.6473 33.3125 89.0625C33.3125 88.5225 33.4027 87.9965 33.5783 87.5H42.4215C42.5973 87.9965 42.6875 88.5225 42.6875 89.0625Z" fill="white"/>
</svg>
