<svg width="13" height="12" viewBox="0 0 13 12" fill="none" xmlns="http://www.w3.org/2000/svg">
<g clip-path="url(#clip0_619_135)">
<path d="M8.80361 7.53651C8.86028 7.52927 8.91274 7.50186 8.95198 7.45899C8.99122 7.41612 9.01479 7.36046 9.01864 7.30159C9.06879 6.72322 9.0893 6.14251 9.08008 5.56191C8.97205 4.7894 8.81193 4.02563 8.60087 3.27619C8.42885 2.76191 8.12167 2.53968 7.85749 2.53968H5.20343C4.91467 2.53968 4.62592 2.76191 4.47847 3.27619C4.26111 4.02514 4.09483 4.78892 3.98084 5.56191C3.96638 6.14242 3.98484 6.72331 4.03613 7.30159C4.04136 7.36101 4.06618 7.41677 4.10645 7.45954C4.14671 7.5023 4.19997 7.52948 4.2573 7.53651L4.67507 7.5873C4.71035 7.59192 4.74617 7.58856 4.78007 7.57747C4.81398 7.56639 4.84514 7.54783 4.87143 7.52308C4.89771 7.49833 4.91849 7.46798 4.93232 7.43412C4.94615 7.40027 4.95271 7.36371 4.95154 7.32699C4.95154 6.83175 4.92082 5.85397 4.95154 5.54286C5.03363 4.99057 5.14645 4.44363 5.28944 3.90476C5.2942 3.88752 5.30428 3.87234 5.31814 3.86154C5.33199 3.85074 5.34888 3.84489 5.36623 3.84489C5.38359 3.84489 5.40047 3.85074 5.41433 3.86154C5.42819 3.87234 5.43826 3.88752 5.44303 3.90476C5.44303 4.53968 5.44303 5.91746 5.44303 6C5.44303 6.08254 4.69964 10.4952 4.4969 11.7143C4.4895 11.7508 4.49016 11.7885 4.49883 11.8247C4.50751 11.8609 4.52398 11.8946 4.54701 11.9233C4.57004 11.9519 4.59905 11.9749 4.63186 11.9904C4.66467 12.0059 4.70044 12.0135 4.73651 12.0127H5.19728C5.25205 12.0131 5.30537 11.9945 5.34877 11.96C5.39218 11.9255 5.42319 11.877 5.43689 11.8222L6.29085 8.38095C6.30323 8.32484 6.33367 8.27474 6.37721 8.23885C6.42074 8.20296 6.47477 8.18342 6.53046 8.18342C6.58614 8.18342 6.64018 8.20296 6.68371 8.23885C6.72724 8.27474 6.75769 8.32484 6.77006 8.38095L7.61789 11.8095C7.63251 11.8638 7.66376 11.9117 7.70697 11.946C7.75017 11.9804 7.80299 11.9993 7.85749 12H8.31826C8.3545 12.0006 8.3904 11.9929 8.42342 11.9774C8.45643 11.962 8.48572 11.9392 8.50921 11.9107C8.53269 11.8821 8.54979 11.8486 8.55926 11.8125C8.56873 11.7763 8.57036 11.7385 8.56401 11.7016C8.36127 10.5143 7.62403 6.17778 7.61174 6.01905C7.59946 5.86032 7.61174 4.56508 7.61174 3.92381C7.61651 3.90656 7.62659 3.89139 7.64044 3.88059C7.6543 3.86978 7.67118 3.86394 7.68854 3.86394C7.7059 3.86394 7.72278 3.86978 7.73664 3.88059C7.75049 3.89139 7.76057 3.90656 7.76534 3.92381C7.90657 4.46273 8.01734 5.00969 8.09709 5.56191C8.12831 6.15618 8.12831 6.75176 8.09709 7.34603C8.09592 7.38276 8.10248 7.41931 8.11631 7.45317C8.13014 7.48702 8.15091 7.51737 8.1772 7.54212C8.20348 7.56687 8.23465 7.58543 8.26855 7.59652C8.30245 7.60761 8.33828 7.61096 8.37356 7.60635L8.80361 7.53651Z" fill="#191A1F"/>
<path d="M5.81828 1.84127C5.6094 1.3012 5.6094 0.698808 5.81828 0.158733C6.04143 0.0551956 6.28327 0.00166607 6.52787 0.00166607C6.77248 0.00166607 7.01432 0.0551956 7.23747 0.158733C7.44635 0.698808 7.44635 1.3012 7.23747 1.84127C7.01518 1.94806 6.77301 2.00339 6.52787 2.00339C6.28274 2.00339 6.04057 1.94806 5.81828 1.84127Z" fill="#191A1F"/>
<path d="M4.23896 8.08254C4.28905 8.07804 4.33589 8.05501 4.37088 8.01769C4.40586 7.98037 4.42665 7.93125 4.42941 7.87937C4.47586 7.37082 4.49228 6.85982 4.47856 6.34921C4.38145 5.67227 4.23564 5.00375 4.04236 4.34921C3.91335 3.89207 3.64302 3.71429 3.428 3.71429H1.08112C0.847656 3.71429 0.577334 3.91747 0.466748 4.34921C0.266039 5.00377 0.110016 5.67208 -0.000170375 6.34921C-0.00970933 6.86008 0.0108074 7.37107 0.0612663 7.87937C0.0640346 7.93125 0.0848194 7.98037 0.119805 8.01769C0.15479 8.05501 0.201628 8.07804 0.25172 8.08254L0.62034 8.12699C0.651295 8.13183 0.682906 8.12941 0.712836 8.11992C0.742766 8.11043 0.77025 8.09411 0.793254 8.07217C0.816258 8.05022 0.834195 8.02321 0.845739 7.99314C0.857282 7.96306 0.862136 7.93069 0.859943 7.89842C0.859943 7.46667 0.859943 6.62858 0.859943 6.33651C0.859943 6.04445 1.04425 5.26985 1.15484 4.89524C1.15484 4.87672 1.16196 4.85896 1.17463 4.84586C1.18731 4.83276 1.2045 4.8254 1.22242 4.8254C1.24034 4.8254 1.25753 4.83276 1.27021 4.84586C1.28288 4.85896 1.29 4.87672 1.29 4.89524V6.73016C1.29 6.86985 0.632627 10.6667 0.454461 11.7143C0.449035 11.7465 0.450551 11.7795 0.458899 11.8111C0.467248 11.8426 0.482223 11.8718 0.502759 11.8967C0.523295 11.9215 0.548885 11.9414 0.577704 11.9549C0.606524 11.9684 0.637864 11.9751 0.669489 11.9746H1.06883C1.11828 11.976 1.16667 11.9596 1.20584 11.9284C1.24501 11.8972 1.27257 11.853 1.28386 11.8032L2.02724 8.78731C2.04085 8.74013 2.06883 8.69876 2.10701 8.66934C2.1452 8.63992 2.19156 8.62403 2.2392 8.62403C2.28683 8.62403 2.33319 8.63992 2.37138 8.66934C2.40957 8.69876 2.43755 8.74013 2.45115 8.78731L3.19454 11.8032C3.2056 11.8519 3.23224 11.8953 3.27015 11.9264C3.30806 11.9575 3.35501 11.9745 3.40342 11.9746H3.8089C3.84053 11.9751 3.87187 11.9684 3.90069 11.9549C3.92951 11.9414 3.9551 11.9215 3.97563 11.8967C3.99617 11.8718 4.01115 11.8426 4.01949 11.8111C4.02784 11.7795 4.02936 11.7465 4.02393 11.7143C3.84577 10.6667 3.20068 6.86985 3.18839 6.73016C3.17611 6.59048 3.18839 5.46032 3.18839 4.89524C3.18839 4.87672 3.19551 4.85896 3.20819 4.84586C3.22086 4.83276 3.23805 4.8254 3.25597 4.8254C3.2739 4.8254 3.29109 4.83276 3.30376 4.84586C3.31643 4.85896 3.32355 4.87672 3.32355 4.89524C3.44792 5.37386 3.54637 5.85927 3.61845 6.34921C3.65531 6.62223 3.61845 7.47937 3.61845 7.91112C3.61722 7.9437 3.62295 7.97617 3.63522 8.00621C3.64749 8.03625 3.66601 8.06313 3.68947 8.08494C3.71292 8.10676 3.74073 8.12297 3.77093 8.13243C3.80113 8.14189 3.83297 8.14437 3.8642 8.13969L4.23896 8.08254Z" fill="#191A1F"/>
<path d="M1.70789 2.92063C1.63152 2.41876 1.74841 1.90594 2.0335 1.49206C2.2464 1.44247 2.46736 1.44297 2.68005 1.49352C2.89273 1.54407 3.0917 1.64339 3.26224 1.78413C3.33632 2.28791 3.2197 2.80182 2.93662 3.21905C2.72321 3.2664 2.50229 3.26419 2.2898 3.21259C2.07731 3.16098 1.87856 3.06126 1.70789 2.92063Z" fill="#191A1F"/>
<path d="M8.76063 8.08254C8.71032 8.07703 8.66336 8.05385 8.62758 8.01687C8.5918 7.9799 8.56937 7.93137 8.56403 7.87937C8.5206 7.37063 8.50419 6.85981 8.51489 6.34921C8.61702 5.6727 8.76483 5.0044 8.95723 4.34921C9.08625 3.89207 9.35657 3.71429 9.5716 3.71429H11.9185C12.1458 3.71429 12.4223 3.91747 12.5328 4.34921C12.7324 5.00325 12.8843 5.67178 12.9875 6.34921C12.9982 6.85981 12.9818 7.37063 12.9383 7.87937C12.9356 7.93125 12.9148 7.98037 12.8798 8.01769C12.8448 8.05501 12.798 8.07804 12.7479 8.08254L12.3793 8.12699C12.348 8.13167 12.3162 8.1292 12.286 8.11974C12.2558 8.11028 12.228 8.09406 12.2045 8.07225C12.1811 8.05043 12.1625 8.02355 12.1503 7.99351C12.138 7.96347 12.1323 7.931 12.1335 7.89842C12.1335 7.46667 12.1642 6.62858 12.1335 6.33651C12.063 5.85096 11.9666 5.36981 11.8448 4.89524C11.8448 4.87672 11.8376 4.85896 11.825 4.84586C11.8123 4.83276 11.7951 4.8254 11.7772 4.8254C11.7592 4.8254 11.7421 4.83276 11.7294 4.84586C11.7167 4.85896 11.7096 4.87672 11.7096 4.89524C11.7096 5.45397 11.7096 6.66032 11.7096 6.73016C11.7096 6.80001 12.367 10.6667 12.5451 11.7143C12.5495 11.7463 12.5472 11.779 12.5384 11.81C12.5297 11.8411 12.5146 11.8699 12.4943 11.8945C12.474 11.9191 12.4488 11.939 12.4205 11.9528C12.3922 11.9666 12.3614 11.974 12.3301 11.9746H11.9185C11.8701 11.9745 11.8231 11.9575 11.7852 11.9264C11.7473 11.8953 11.7207 11.8519 11.7096 11.8032L10.9662 8.78731C10.9526 8.74013 10.9246 8.69876 10.8864 8.66934C10.8482 8.63992 10.8019 8.62403 10.7543 8.62403C10.7066 8.62403 10.6603 8.63992 10.6221 8.66934C10.5839 8.69876 10.5559 8.74013 10.5423 8.78731L9.79277 11.8032C9.7817 11.8519 9.75506 11.8953 9.71715 11.9264C9.67925 11.9575 9.63229 11.9745 9.58388 11.9746H9.21526C9.18364 11.9751 9.1523 11.9684 9.12348 11.9549C9.09466 11.9414 9.06907 11.9216 9.04853 11.8967C9.028 11.8718 9.01302 11.8426 9.00467 11.8111C8.99632 11.7795 8.99481 11.7465 9.00023 11.7143C9.1784 10.6667 9.82349 6.86985 9.82963 6.73016C9.83577 6.59048 9.82963 5.46032 9.82963 4.89524C9.82963 4.87672 9.82251 4.85896 9.80984 4.84586C9.79716 4.83276 9.77997 4.8254 9.76205 4.8254C9.74413 4.8254 9.72694 4.83276 9.71426 4.84586C9.70159 4.85896 9.69447 4.87672 9.69447 4.89524C9.58388 5.26985 9.43644 6.09524 9.39957 6.33651C9.36271 6.57778 9.39957 7.46667 9.39957 7.89842C9.40177 7.93069 9.39691 7.96306 9.38537 7.99314C9.37383 8.02321 9.35589 8.05022 9.33288 8.07217C9.30988 8.09411 9.2824 8.11043 9.25247 8.11992C9.22254 8.12941 9.19093 8.13183 9.15997 8.12699L8.76063 8.08254Z" fill="#191A1F"/>
<path d="M11.2917 2.92064C11.3648 2.4189 11.2482 1.90733 10.9661 1.49206C10.7532 1.44201 10.5321 1.44227 10.3194 1.49284C10.1066 1.54341 9.90767 1.64299 9.73735 1.78413C9.66065 2.28802 9.7775 2.80293 10.063 3.21905C10.2764 3.26595 10.4972 3.26352 10.7096 3.21193C10.9221 3.16035 11.1208 3.06087 11.2917 2.92064Z" fill="#191A1F"/>
</g>
<defs>
<clipPath id="clip0_619_135">
<rect width="13" height="12" fill="white"/>
</clipPath>
</defs>
</svg>
