<svg width="20" height="20" viewBox="0 0 20 20" fill="none" xmlns="http://www.w3.org/2000/svg">
<path d="M18.7301 2.22226H1.26986C0.56859 2.22226 0 2.79081 0 3.49208V16.508C0 17.2092 0.56859 17.7778 1.26986 17.7778H18.7301C19.4314 17.7778 20 17.2092 20 16.5079V3.49208C20 2.79081 19.4314 2.22226 18.7301 2.22226ZM18.7301 3.49208V12.7273L16.2276 10.4521C15.8514 10.1102 15.273 10.1238 14.9136 10.4835L12.3809 13.0159L7.38699 7.0508C7.0095 6.6 6.31807 6.59557 5.93492 7.04096L1.26986 12.4626V3.49208H18.7301ZM13.3333 6.82542C13.3333 5.86097 14.1149 5.07938 15.0793 5.07938C16.0438 5.07938 16.8254 5.86097 16.8254 6.82542C16.8254 7.78987 16.0438 8.57142 15.0793 8.57142C14.1149 8.57146 13.3333 7.78987 13.3333 6.82542Z" fill="#00BDBA"/>
</svg>
