<svg width="24" height="24" viewBox="0 0 24 24" fill="none" xmlns="http://www.w3.org/2000/svg">
<g clip-path="url(#clip0_625_122)">
<path d="M23.739 19.7595L13.6675 2.31535C12.9263 1.03139 11.0741 1.03092 10.3325 2.31535L0.261023 19.7595C-0.48026 21.0435 0.445429 22.6478 1.92856 22.6478H22.0714C23.5541 22.6478 24.4805 21.044 23.739 19.7595ZM12.8823 18.0485C12.8823 18.5357 12.4873 18.9307 12 18.9307C11.5128 18.9307 11.1178 18.5357 11.1178 18.0485V17.5217C11.1178 17.0345 11.5128 16.6394 12 16.6394C12.4873 16.6394 12.8823 17.0345 12.8823 17.5217V18.0485ZM12.8823 14.6111C12.8823 15.0983 12.4873 15.4933 12 15.4933C11.5128 15.4933 11.1178 15.0983 11.1178 14.6111V9.55371C11.1178 9.06649 11.5128 8.67147 12 8.67147C12.4873 8.67147 12.8823 9.06649 12.8823 9.55371V14.6111Z" fill="white"/>
</g>
<defs>
<clipPath id="clip0_625_122">
<rect width="24" height="24" fill="white"/>
</clipPath>
</defs>
</svg>
