<svg width="26" height="26" viewBox="0 0 26 26" fill="none" xmlns="http://www.w3.org/2000/svg">
<g clip-path="url(#clip0_901_316)">
<path d="M9.47949 19.0797V24.1041C9.47949 24.4551 9.70482 24.7661 10.0385 24.8766C10.1219 24.9036 10.2075 24.9166 10.292 24.9166C10.5455 24.9166 10.7903 24.7975 10.9463 24.5851L13.8854 20.5855L9.47949 19.0797Z" fill="#00BDBA"/>
<path d="M25.6588 0.149886C25.4096 -0.0266975 25.0825 -0.0505308 24.8116 0.0913858L0.436632 12.8205C0.148465 12.9711 -0.0216185 13.2788 0.00221485 13.6027C0.0271315 13.9277 0.242715 14.205 0.549298 14.3101L7.32555 16.6263L21.7566 4.28713L10.5896 17.741L21.9462 21.6226C22.0307 21.6508 22.1196 21.666 22.2084 21.666C22.3557 21.666 22.502 21.6259 22.6309 21.5479C22.8367 21.4222 22.9765 21.211 23.0122 20.9737L25.9914 0.932052C26.0358 0.628719 25.908 0.327552 25.6588 0.149886Z" fill="#00BDBA"/>
</g>
<defs>
<clipPath id="clip0_901_316">
<rect width="26" height="26" fill="white"/>
</clipPath>
</defs>
</svg>
