<svg width="19" height="19" viewBox="0 0 19 19" fill="none" xmlns="http://www.w3.org/2000/svg">
<path d="M18.4307 11.5821L16.6843 10.2165C16.7065 10.0059 16.7255 9.75969 16.7255 9.49922C16.7255 9.23875 16.7072 8.99257 16.6843 8.78197L18.4323 7.41557C18.7569 7.15907 18.8456 6.70385 18.6389 6.32466L16.8228 3.1825C16.6289 2.82785 16.2037 2.64575 15.7723 2.80487L13.7116 3.63215C13.3166 3.34715 12.9025 3.1065 12.4742 2.91412L12.1607 0.728346C12.1092 0.3135 11.7482 0 11.3216 0H7.67991C7.25318 0 6.893 0.3135 6.84231 0.722L6.52803 2.91572C6.11318 3.10257 5.7055 3.34007 5.29303 3.63375L3.22678 2.8041C2.83962 2.65447 2.37649 2.82228 2.18412 3.17537L0.365685 6.32147C0.151156 6.68407 0.23981 7.1551 0.571531 7.41794L2.31794 8.78357C2.29021 9.05035 2.27678 9.28232 2.27678 9.50004C2.27678 9.71776 2.29025 9.94969 2.31794 10.2173L0.569935 11.5837C0.24534 11.841 0.157465 12.2962 0.36409 12.6746L2.18019 15.8167C2.37416 16.1706 2.79531 16.3542 3.23071 16.1943L5.29143 15.3671C5.68568 15.6513 6.09971 15.8919 6.52803 16.0851L6.84153 18.2701C6.89296 18.6865 7.25318 19 7.68068 19H11.3223C11.7491 19 12.1101 18.6865 12.1607 18.278L12.475 16.0851C12.8898 15.8975 13.2967 15.6607 13.71 15.3662L15.7762 16.1959C15.876 16.2347 15.9797 16.2545 16.0866 16.2545C16.3937 16.2545 16.6764 16.0867 16.8189 15.8254L18.6429 12.6667C18.8456 12.2962 18.7569 11.841 18.4307 11.5821ZM9.50071 12.6667C7.75431 12.6667 6.33406 11.2464 6.33406 9.5C6.33406 7.7536 7.75431 6.33335 9.50071 6.33335C11.2471 6.33335 12.6674 7.7536 12.6674 9.5C12.6674 11.2464 11.2471 12.6667 9.50071 12.6667Z" fill="#9FA3B5"/>
</svg>
