<svg width="24" height="24" viewBox="0 0 24 24" fill="none" xmlns="http://www.w3.org/2000/svg">
<path d="M23.2462 10.175L13.6968 0.625854C13.2817 0.210571 12.8577 0 12.4363 0C11.8515 0 11.1687 0.438171 11.1687 1.67267V7.56042C8.25421 7.75891 5.54242 8.99744 3.47021 11.0911C1.2323 13.3522 0 16.3497 0 19.5311C0 20.9015 0.22998 22.2473 0.683899 23.5312C0.783142 23.8121 1.04883 24 1.34674 24C1.64484 24 1.91034 23.8121 2.00977 23.5312C3.40576 19.5817 7.0318 16.8287 11.1689 16.5018V22.3271C11.1689 23.5616 11.8517 23.9998 12.4363 23.9998H12.4365C12.8577 23.9998 13.2817 23.7894 13.6968 23.3743L23.2463 13.8248C23.7323 13.3387 23.9998 12.6907 23.9998 11.9998C23.9998 11.3091 23.7321 10.6609 23.2462 10.175Z" fill="white"/>
</svg>
