<svg width="17" height="17" viewBox="0 0 17 17" fill="none" xmlns="http://www.w3.org/2000/svg">
<path d="M10.0026 7.7966H6.99702C5.64385 7.7966 4.54297 8.89749 4.54297 10.2507V15.2195C4.54297 15.4905 4.76271 15.7103 5.03378 15.7103H11.9659C12.2369 15.7103 12.4567 15.4906 12.4567 15.2195V10.2507C12.4567 8.89749 11.3558 7.7966 10.0026 7.7966Z" fill="#00BDBA"/>
<path d="M8.50013 1.28961C6.87277 1.28961 5.54883 2.61356 5.54883 4.24094C5.54883 5.34478 6.15807 6.30884 7.05781 6.81499C7.48457 7.05505 7.97658 7.19224 8.50013 7.19224C9.02367 7.19224 9.51568 7.05505 9.94244 6.81499C10.8422 6.30884 11.4514 5.34475 11.4514 4.24094C11.4514 2.61359 10.1275 1.28961 8.50013 1.28961Z" fill="#00BDBA"/>
</svg>
