<svg xmlns="http://www.w3.org/2000/svg" width="24" height="24" viewBox="0 0 24 24">
  <g id="Group_67" data-name="Group 67" transform="translate(-2053.587 -354.587)">
    <g id="Rectangle_238" data-name="Rectangle 238" transform="translate(2053.586 354.587)" fill="none" stroke="#fff" stroke-width="2" opacity="0.95">
      <rect width="24" height="24" rx="5" stroke="none"/>
      <rect x="1" y="1" width="22" height="22" rx="4" fill="none"/>
    </g>
    <g id="twitter" transform="translate(2060.587 362.587)">
      <path id="Path_665" data-name="Path 665" d="M11.092,2.917a3.936,3.936,0,0,1-1.131.31,1.981,1.981,0,0,0,.867-1.09,3.959,3.959,0,0,1-1.251.478,1.972,1.972,0,0,0-3.357,1.8,5.593,5.593,0,0,1-4.06-2.059,1.973,1.973,0,0,0,.609,2.631,1.96,1.96,0,0,1-.892-.247v.025a1.971,1.971,0,0,0,1.58,1.931,1.968,1.968,0,0,1-.89.034A1.973,1.973,0,0,0,4.407,8.1a3.951,3.951,0,0,1-2.447.843,3.911,3.911,0,0,1-.47-.027,5.6,5.6,0,0,0,8.625-4.72c0-.085,0-.17-.006-.255a4,4,0,0,0,.983-1.019Z" transform="translate(-1.49 -1.993)" fill="#fff" fill-rule="evenodd"/>
    </g>
  </g>
</svg>
